<?xml version="1.0" encoding="UTF-8"?>
<!DOCTYPE svg PUBLIC "-//W3C//DTD SVG 1.1//EN" "http://www.w3.org/Graphics/SVG/1.1/DTD/svg11.dtd">
<!-- Creator: CorelDRAW -->
<svg xmlns="http://www.w3.org/2000/svg" xml:space="preserve" width="297mm" height="297mm" version="1.1" style="shape-rendering:geometricPrecision; text-rendering:geometricPrecision; image-rendering:optimizeQuality; fill-rule:evenodd; clip-rule:evenodd"
viewBox="0 0 29700 29700"
 xmlns:xlink="http://www.w3.org/1999/xlink"
 xmlns:xodm="http://www.corel.com/coreldraw/odm/2003">
 <defs>
  <style type="text/css">
   <![CDATA[
    .fil4 {fill:#EBDEC0;fill-rule:nonzero}
    .fil0 {fill:url(#id0)}
    .fil1 {fill:url(#id1)}
    .fil2 {fill:url(#id2)}
    .fil3 {fill:url(#id3)}
   ]]>
  </style>
  <linearGradient id="id0" gradientUnits="userSpaceOnUse" x1="18075.99" y1="29345.77" x2="11622.95" y2="355.29">
   <stop offset="0" style="stop-opacity:1; stop-color:#01213D"/>
   <stop offset="1" style="stop-opacity:1; stop-color:#063759"/>
  </linearGradient>
  <linearGradient id="id1" gradientUnits="userSpaceOnUse" x1="8472.8" y1="14165.57" x2="11667.96" y2="14918.33">
   <stop offset="0" style="stop-opacity:1; stop-color:#3E5D97"/>
   <stop offset="1" style="stop-opacity:1; stop-color:#6FC9C8"/>
  </linearGradient>
  <linearGradient id="id2" gradientUnits="userSpaceOnUse" xlink:href="#id1" x1="7670.47" y1="16211.18" x2="10160" y2="16804.73">
  </linearGradient>
  <linearGradient id="id3" gradientUnits="userSpaceOnUse" x1="7686.12" y1="12348.05" x2="13307.06" y2="13730.47">
   <stop offset="0" style="stop-opacity:1; stop-color:#2F5391"/>
   <stop offset="1" style="stop-opacity:1; stop-color:#60C6C3"/>
  </linearGradient>
 </defs>
 <g id="Camada_x0020_1">
  <metadata id="CorelCorpID_0Corel-Layer"/>
  <rect class="fil0" x="-0.53" y="0.53" width="29700" height="29700"/>
  <g id="_2554876480640">
   <g>
    <path class="fil1" d="M9436.71 11889.95c-222.32,1.65 -750.7,186.38 -972.62,248.09 -318.56,88.6 -655.43,129.79 -878.05,385.15 -655.64,752.02 179.12,1351.42 609.19,1767.03 952.84,920.84 1926.69,1838.96 2862.49,2767.79 820.39,814.25 1540.43,223.84 1628.53,-346.67 98.54,-638.19 -700.3,-1176.61 -1129.64,-1597.61 -470.23,-461.1 -948.89,-908.87 -1416.62,-1369.35 -569.56,-560.77 -992.13,-838.93 -703.28,-1854.43z"/>
    <path class="fil2" d="M11082.74 17696.91c-67.69,-121.82 -2809.78,-2806.04 -3039.96,-2921.01 -566.63,-283.02 -1136.63,27.21 -1263.27,571.86 -137.24,590.15 281.71,859.23 625.9,1194.69 321.67,313.5 681.17,669.48 1020.64,984.4 381.31,353.74 626.68,760.24 1308.21,571.28 379.89,-105.32 1018.7,-252.86 1348.48,-401.22z"/>
    <path class="fil3" d="M13295.51 14124.31c-14.57,-474.79 -338.97,-669.45 -669.87,-985.71 -556.61,-531.98 -1439.33,-1589.74 -2026.34,-1583.61 -412.32,4.33 -853.19,338.65 -839.33,907.4 10.91,446.97 346.01,673.06 665.41,976.64 584.22,555.25 1456.04,1603.02 2036.53,1592.15 437.73,-8.19 849.96,-374.23 833.6,-906.87z"/>
   </g>
   <g>
    <path class="fil4" d="M14515.68 14372.91c-115.99,0 -227.04,-21.75 -333.15,-65.25 -106.1,-43.49 -199.36,-101.49 -279.76,-173.98l124.56 -124.56c22.41,-19.77 45.47,-29.66 69.2,-29.66 19.77,0 39.54,5.93 59.31,17.8 121.27,88.31 247.8,132.46 379.61,132.46 84.36,0 152.57,-15.48 204.63,-46.46 52.07,-30.97 78.1,-73.48 78.1,-127.52 0,-48.77 -18.13,-86.34 -54.37,-112.7 -36.25,-26.36 -93.92,-45.47 -173,-57.34l-274.82 -47.45c-122.58,-21.09 -213.53,-63.92 -272.84,-128.51 -59.32,-64.59 -88.97,-144.99 -88.97,-241.21 0,-133.12 50.08,-236.26 150.26,-309.42 100.17,-73.15 231.98,-109.73 395.42,-109.73 96.22,0 195.08,16.48 296.57,49.43 101.49,32.95 193.1,81.06 274.82,144.33l-132.47 132.47c-18.45,18.45 -41.52,27.68 -69.2,27.68 -17.13,0 -34.27,-4.62 -51.4,-13.84 -110.72,-65.91 -223.42,-98.86 -338.09,-98.86 -73.81,0 -134.44,13.51 -181.9,40.53 -47.45,27.02 -71.17,65.58 -71.17,115.66 0,43.5 15.82,77.11 47.45,100.84 31.63,23.72 81.72,40.2 150.26,49.42l260.98 43.5c275.48,43.5 413.22,173.33 413.22,389.49 0,137.08 -53.71,245.17 -161.14,324.25 -107.42,79.09 -248.13,118.63 -422.11,118.63z"/>
    <path id="_1" class="fil4" d="M15925.37 14372.91c183.21,0 331.16,-54.7 443.86,-164.1 112.69,-109.4 169.04,-260.98 169.04,-454.74l0 -686.06c0,-27.68 -9.55,-51.08 -28.67,-70.19 -19.11,-19.11 -42.5,-28.67 -70.18,-28.67l-187.83 0 0 784.92c0,104.13 -28.67,189.14 -86,255.05 -57.34,65.9 -136.76,98.85 -238.25,98.85 -100.17,0 -179.92,-32.29 -239.23,-96.87 -59.31,-64.59 -88.97,-150.27 -88.97,-257.03l0 -784.92 -286.68 0 0 784.92c0,188.49 54.7,338.75 164.1,450.78 109.4,112.04 259,168.06 448.81,168.06z"/>
    <path id="_2" class="fil4" d="M18151.61 14179.15l-268.89 -373.68 0 -838.29 268.89 0 0 1211.97zm0 172.01l-260.98 0c-48.77,0 -90.95,-20.43 -126.54,-61.29l-571.39 -864 0 925.29 -270.86 0 0 -1383.98 195.73 0c47.45,0 88.97,20.43 124.56,61.29 301.84,441.55 605,882.45 909.48,1322.69z"/>
    <path id="_3" class="fil4" d="M19673.98 14351.16l-259 0c-36.9,0 -66.56,-17.79 -88.97,-53.38l-215.5 -423.11c-21.09,-35.58 -50.75,-53.38 -88.98,-53.38l-251.09 0 0 529.87 -286.68 0 0 -765.15 650.47 0c65.9,0 117.97,-17.13 156.19,-51.4 38.23,-34.27 57.34,-79.09 57.34,-134.44 0,-55.36 -19.11,-100.18 -57.34,-134.45 -38.22,-34.27 -90.29,-51.4 -156.19,-51.4l-551.62 0c-27.68,0 -51.07,-9.56 -70.18,-28.67 -19.12,-19.11 -28.67,-42.51 -28.67,-70.19l0 -148.28 676.17 0c138.4,0 252.74,39.21 343.03,117.63 90.29,78.43 135.44,182.23 135.44,311.4 0,90.95 -25.38,169.7 -76.12,236.27 -50.75,66.56 -115.66,116.32 -194.75,149.27l306.45 569.41z"/>
    <path id="_4" class="fil4" d="M20184.08 14351.16l0 -1285.13c0,-27.68 -9.55,-51.07 -28.66,-70.19 -19.12,-19.11 -42.51,-28.66 -70.19,-28.66l-187.83 0 0 1383.98 286.68 0z"/>
    <path id="_5" class="fil4" d="M21000.64 14372.91c-115.99,0 -227.04,-21.75 -333.15,-65.25 -106.1,-43.49 -199.36,-101.49 -279.76,-173.98l124.56 -124.56c22.41,-19.77 45.47,-29.66 69.2,-29.66 19.77,0 39.54,5.93 59.31,17.8 121.27,88.31 247.8,132.46 379.61,132.46 84.36,0 152.57,-15.48 204.63,-46.46 52.07,-30.97 78.1,-73.48 78.1,-127.52 0,-48.77 -18.13,-86.34 -54.37,-112.7 -36.25,-26.36 -93.92,-45.47 -173,-57.34l-274.82 -47.45c-122.58,-21.09 -213.53,-63.92 -272.84,-128.51 -59.32,-64.59 -88.97,-144.99 -88.97,-241.21 0,-133.12 50.08,-236.26 150.26,-309.42 100.17,-73.15 231.98,-109.73 395.42,-109.73 96.22,0 195.08,16.48 296.57,49.43 101.49,32.95 193.1,81.06 274.82,144.33l-132.47 132.47c-18.45,18.45 -41.52,27.68 -69.2,27.68 -17.13,0 -34.27,-4.62 -51.4,-13.84 -110.72,-65.91 -223.42,-98.86 -338.09,-98.86 -73.81,0 -134.44,13.51 -181.9,40.53 -47.45,27.02 -71.17,65.58 -71.17,115.66 0,43.5 15.82,77.11 47.45,100.84 31.63,23.72 81.72,40.2 150.26,49.42l260.98 43.5c275.48,43.5 413.22,173.33 413.22,389.49 0,137.08 -53.71,245.17 -161.14,324.25 -107.42,79.09 -248.13,118.63 -422.11,118.63z"/>
    <path id="_6" class="fil4" d="M22780.05 13216.29l-996.47 0 0 -249.11 1162.54 0 -75.13 185.85c-21.09,42.17 -51.4,63.26 -90.94,63.26zm-264.94 563.48l-731.53 0 0 -241.21 893.66 0 -71.18 177.94c-21.09,42.18 -51.41,63.27 -90.95,63.27zm270.87 571.39l-1002.4 0 0 -249.12 1162.54 0 -67.22 183.88c-19.77,43.49 -50.74,65.24 -92.92,65.24z"/>
    <path id="_7" class="fil4" d="M14515.68 16324.8c-115.99,0 -227.04,-21.75 -333.15,-65.25 -106.1,-43.49 -199.36,-101.49 -279.76,-173.98l124.56 -124.56c22.41,-19.77 45.47,-29.66 69.2,-29.66 19.77,0 39.54,5.93 59.31,17.8 121.27,88.31 247.8,132.46 379.61,132.46 84.36,0 152.57,-15.48 204.63,-46.46 52.07,-30.97 78.1,-73.48 78.1,-127.52 0,-48.77 -18.13,-86.34 -54.37,-112.7 -36.25,-26.36 -93.92,-45.47 -173,-57.34l-274.82 -47.45c-122.58,-21.09 -213.53,-63.92 -272.84,-128.51 -59.32,-64.59 -88.97,-144.99 -88.97,-241.21 0,-133.12 50.08,-236.26 150.26,-309.42 100.17,-73.15 231.98,-109.73 395.42,-109.73 96.22,0 195.08,16.48 296.57,49.43 101.49,32.95 193.1,81.06 274.82,144.33l-132.47 132.47c-18.45,18.45 -41.52,27.68 -69.2,27.68 -17.13,0 -34.27,-4.62 -51.4,-13.84 -110.72,-65.91 -223.42,-98.86 -338.09,-98.86 -73.81,0 -134.44,13.51 -181.9,40.53 -47.45,27.02 -71.17,65.58 -71.17,115.66 0,43.5 15.82,77.11 47.45,100.84 31.63,23.72 81.72,40.2 150.26,49.42l260.98 43.5c275.48,43.5 413.22,173.33 413.22,389.49 0,137.08 -53.71,245.17 -161.14,324.25 -107.42,79.09 -248.13,118.63 -422.11,118.63z"/>
    <path id="_8" class="fil4" d="M16295.09 15168.18l-996.47 0 0 -249.11 1162.54 0 -75.13 185.85c-21.09,42.17 -51.4,63.26 -90.94,63.26zm-264.94 563.48l-731.53 0 0 -241.21 893.66 0 -71.18 177.94c-21.09,42.18 -51.41,63.27 -90.95,63.27zm270.87 571.39l-1002.4 0 0 -249.12 1162.54 0 -67.22 183.88c-19.77,43.49 -50.74,65.24 -92.92,65.24z"/>
    <path id="_9" class="fil4" d="M17827.35 16303.05l-259 0c-36.9,0 -66.56,-17.79 -88.97,-53.38l-215.5 -423.11c-21.09,-35.58 -50.75,-53.38 -88.98,-53.38l-251.09 0 0 529.87 -286.68 0 0 -765.15 650.47 0c65.9,0 117.97,-17.13 156.19,-51.4 38.23,-34.27 57.34,-79.09 57.34,-134.44 0,-55.36 -19.11,-100.18 -57.34,-134.45 -38.22,-34.27 -90.29,-51.4 -156.19,-51.4l-551.62 0c-27.68,0 -51.07,-9.56 -70.18,-28.67 -19.12,-19.11 -28.67,-42.51 -28.67,-70.19l0 -148.28 676.17 0c138.4,0 252.74,39.21 343.03,117.63 90.29,78.43 135.44,182.23 135.44,311.4 0,90.95 -25.38,169.7 -76.12,236.27 -50.75,66.56 -115.66,116.32 -194.75,149.27l306.45 569.41z"/>
    <path id="_10" class="fil4" d="M18800.1 16303.05l569.41 -1383.98 -189.8 0c-63.27,0 -112.04,33.61 -146.31,100.83l-393.45 992.51 -423.1 -1093.34 -310.41 0 521.96 1285.12c32.95,65.91 81.72,98.86 146.31,98.86l225.39 0z"/>
    <path id="_11" class="fil4" d="M19824.24 16303.05l0 -1285.13c0,-27.68 -9.55,-51.07 -28.66,-70.19 -19.12,-19.11 -42.51,-28.66 -70.19,-28.66l-187.83 0 0 1383.98 286.68 0z"/>
    <path id="_12" class="fil4" d="M20818.74 16324.8c-144.99,0 -272.84,-32.62 -383.56,-97.87 -110.72,-65.24 -197.38,-151.91 -259.99,-259.99 -62.61,-108.08 -93.92,-226.05 -93.92,-353.9 0,-135.77 32.96,-257.36 98.86,-364.78 65.9,-107.43 154.87,-192.44 266.91,-255.05 112.04,-62.61 235.94,-93.92 371.7,-93.92 115.99,0 224.73,23.73 326.22,71.18 101.5,47.45 183.88,109.4 247.14,185.85l-160.14 110.72c-18.46,11.86 -37.57,17.79 -57.34,17.79 -19.77,0 -39.54,-6.59 -59.31,-19.77 -88.31,-68.54 -187.17,-102.81 -296.57,-102.81 -125.22,0 -230.34,42.84 -315.35,128.51 -85.02,85.68 -127.53,193.1 -127.53,322.28 0,125.21 42.84,230.99 128.52,317.32 85.67,86.34 193.1,129.5 322.27,129.5 106.76,0 202.98,-32.29 288.66,-96.87 19.77,-13.19 39.54,-19.78 59.31,-19.78 19.77,0 38.88,5.94 57.34,17.8l154.21 108.74c-67.22,77.77 -151.25,139.72 -252.08,185.85 -100.83,46.13 -205.95,69.2 -315.35,69.2z"/>
    <path id="_13" class="fil4" d="M22552.68 15168.18l-996.47 0 0 -249.11 1162.54 0 -75.13 185.85c-21.09,42.17 -51.4,63.26 -90.94,63.26zm-264.94 563.48l-731.53 0 0 -241.21 893.66 0 -71.18 177.94c-21.09,42.18 -51.41,63.27 -90.95,63.27zm270.87 571.39l-1002.4 0 0 -249.12 1162.54 0 -67.22 183.88c-19.77,43.49 -50.74,65.24 -92.92,65.24z"/>
    <path class="fil4" d="M14055.15 16820.82c91,0 159.6,22.63 205.82,67.89 46.22,45.26 69.33,105.2 69.33,179.83 0,80.88 -22.74,145.4 -68.24,193.54 -45.5,48.15 -109.17,72.22 -191.02,72.22 -25.52,0 -81.61,-1.2 -168.27,-3.61l0 -505.53c66.44,-2.89 117.23,-4.34 152.38,-4.34zm13.72 467.26c70.78,0 122.89,-19.74 156.36,-59.22 33.46,-39.48 50.19,-92.92 50.19,-160.32 0,-60.67 -17.94,-109.42 -53.8,-146.25 -35.87,-36.83 -93.05,-55.25 -171.52,-55.25 -25.04,0 -56.82,1.21 -95.33,3.61l0 414.54c62.59,1.93 100.62,2.89 114.1,2.89z"/>
    <path id="_1_0" class="fil4" d="M14807.67 17330.69l-61.39 -134.33 -261.43 0 -62.11 134.33 -57.05 0 244.1 -514.2 13.72 0 244.82 514.2 -60.66 0zm-301.88 -180.55l219.55 0 -109.77 -239.04 -109.78 239.04z"/>
    <polygon id="_2_1" class="fil4" points="15307.43,16825.16 15307.43,16872.1 15108.83,16872.1 15108.83,17330.69 15056.83,17330.69 15056.83,16872.1 14858.23,16872.1 14858.23,16825.16 "/>
    <path id="_3_2" class="fil4" d="M15739.3 17330.69l-61.39 -134.33 -261.43 0 -62.11 134.33 -57.05 0 244.1 -514.2 13.72 0 244.82 514.2 -60.66 0zm-301.88 -180.55l219.55 0 -109.77 -239.04 -109.78 239.04z"/>
    <polygon id="_4_3" class="fil4" points="16455.72,16825.16 16455.72,16872.1 16257.12,16872.1 16257.12,17330.69 16205.12,17330.69 16205.12,16872.1 16006.52,16872.1 16006.52,16825.16 "/>
    <path id="_5_4" class="fil4" d="M16757.6 17337.91c-76.55,0 -139.26,-24.55 -188.13,-73.66 -48.87,-49.11 -73.31,-111.22 -73.31,-186.33 0,-74.62 24.92,-136.73 74.75,-186.32 49.83,-49.59 112.06,-74.39 186.69,-74.39 76.55,0 139.26,24.68 188.13,74.03 48.87,49.35 73.3,111.58 73.3,186.68 0,74.63 -24.92,136.62 -74.75,185.97 -49.83,49.35 -112.06,74.02 -186.68,74.02zm-149.86 -108.69c37.8,40.2 87.75,60.31 149.86,60.31 62.11,0 112.06,-20.11 149.85,-60.31 37.8,-40.2 56.69,-90.63 56.69,-151.3 0,-61.14 -18.65,-111.7 -55.97,-151.66 -37.31,-39.96 -87.5,-59.94 -150.57,-59.94 -63.56,0 -113.87,19.98 -150.94,59.94 -37.07,39.96 -55.61,90.52 -55.61,151.66 0,60.67 18.9,111.1 56.69,151.3z"/>
    <path id="_6_5" class="fil4" d="M17702.94 17330.69l-65.72 0 -137.22 -205.82c-12.52,0.96 -22.39,1.44 -29.61,1.44l-101.1 0 0 204.38 -52 0 0 -505.53c83.29,-3.37 137.7,-5.06 163.21,-5.06 57.3,0 101.71,11.8 133.25,35.39 31.53,23.59 47.3,59.46 47.3,107.61 0,36.1 -9.15,67.28 -27.44,93.52 -18.3,26.24 -44.78,45.38 -79.44,57.41l148.77 216.66zm-333.65 -249.16l103.27 0c44.29,0 77.75,-9.87 100.38,-29.61 22.63,-19.74 33.95,-48.14 33.95,-85.21 0,-35.15 -10.72,-60.91 -32.14,-77.28 -21.43,-16.37 -55.49,-24.55 -102.19,-24.55 -16.85,0 -51.28,1.44 -103.27,4.33l0 212.32z"/>
    <polygon id="_7_6" class="fil4" points="18143.47,16872.1 17837.99,16872.1 17837.99,17048.31 18114.58,17048.31 18114.58,17094.53 17837.99,17094.53 17837.99,17284.47 18143.47,17284.47 18143.47,17330.69 17785.99,17330.69 17785.99,16825.16 18143.47,16825.16 "/>
    <polygon id="_8_7" class="fil4" points="18656.23,16825.16 18714,16825.16 18469.9,17338.63 18455.46,17338.63 18211.36,16825.16 18271.3,16825.16 18463.4,17238.25 "/>
    <polygon id="_9_8" class="fil4" points="19149.48,16872.1 18844,16872.1 18844,17048.31 19120.59,17048.31 19120.59,17094.53 18844,17094.53 18844,17284.47 19149.48,17284.47 19149.48,17330.69 18792,17330.69 18792,16825.16 19149.48,16825.16 "/>
    <polygon id="_10_9" class="fil4" points="19672.35,16825.16 19724.35,16825.16 19724.35,17339.36 19709.9,17339.36 19315.59,16931.32 19315.59,17330.69 19263.59,17330.69 19263.59,16819.38 19278.03,16819.38 19672.35,17228.14 "/>
    <path id="_11_10" class="fil4" d="M20220.49 16825.16l51.99 0 0 481.7c-74.62,20.7 -145.88,31.05 -213.76,31.05 -41.89,0 -76.92,-4.09 -105.08,-12.28 -28.17,-8.18 -50.2,-20.94 -66.08,-38.27 -15.89,-17.33 -27.09,-37.43 -33.59,-60.3 -6.49,-22.87 -9.74,-50.92 -9.74,-84.14 0,-40.44 3.37,-146.36 10.11,-317.76l52.72 0c-5.78,130.95 -8.67,236.63 -8.67,317.04 0,36.11 4.57,64.27 13.72,84.49 9.15,20.23 26.36,35.63 51.64,46.22 25.27,10.6 61.02,15.89 107.24,15.89 47.67,0 97.5,-6.02 149.5,-18.05l0 -445.59z"/>
    <polygon id="_12_11" class="fil4" points="20754.18,16872.1 20448.7,16872.1 20448.7,17048.31 20725.29,17048.31 20725.29,17094.53 20448.7,17094.53 20448.7,17284.47 20754.18,17284.47 20754.18,17330.69 20396.7,17330.69 20396.7,16825.16 20754.18,16825.16 "/>
   </g>
  </g>
 </g>
</svg>
